<svg width="54" height="53" viewBox="0 0 54 53" fill="none" xmlns="http://www.w3.org/2000/svg">
<path d="M38.9673 21.2497H31.9613C31.7842 21.2508 31.6115 21.1951 31.4684 21.0907C31.3253 20.9864 31.2194 20.8389 31.1663 20.67L29.0132 14.045C28.8538 13.5418 28.5384 13.1025 28.1125 12.7907C27.6867 12.4788 27.1726 12.3107 26.6448 12.3107C26.1169 12.3107 25.6028 12.4788 25.177 12.7907C24.7511 13.1025 24.4357 13.5418 24.2763 14.045L22.1232 20.67C22.0701 20.8389 21.9642 20.9864 21.8211 21.0907C21.678 21.1951 21.5053 21.2508 21.3282 21.2497H14.3223C13.7994 21.252 13.2905 21.4192 12.8682 21.7275C12.4459 22.0358 12.1316 22.4694 11.9701 22.9668C11.8086 23.4641 11.8081 23.9997 11.9688 24.4973C12.1294 24.9949 12.443 25.4291 12.8648 25.7381L18.5291 29.8125C18.6747 29.9122 18.7829 30.0573 18.8369 30.2253C18.8909 30.3932 18.8875 30.5743 18.8273 30.74L16.6741 37.365C16.5032 37.8607 16.498 38.3985 16.6593 38.8974C16.8206 39.3963 17.1397 39.8292 17.5685 40.131C17.9897 40.452 18.5047 40.6259 19.0343 40.6259C19.5639 40.6259 20.0789 40.452 20.5001 40.131L26.1644 36.0235C26.3026 35.9187 26.4713 35.862 26.6448 35.862C26.8182 35.862 26.9869 35.9187 27.1251 36.0235L32.7894 40.131C33.2139 40.4443 33.7276 40.6134 34.2552 40.6134C34.7828 40.6134 35.2965 40.4443 35.721 40.131C36.127 39.8298 36.4284 39.4091 36.5829 38.9278C36.7373 38.4466 36.7371 37.929 36.5823 37.4478L34.4291 30.8228C34.346 30.6438 34.3339 30.4399 34.3954 30.2523C34.4569 30.0647 34.5874 29.9075 34.7604 29.8125L40.4248 25.6885C40.8466 25.3794 41.1601 24.9452 41.3207 24.4476C41.4814 23.95 41.4809 23.4144 41.3194 22.9171C41.1579 22.4198 40.8436 21.9861 40.4213 21.6778C39.999 21.3695 39.4901 21.2023 38.9673 21.2V21.2497ZM39.4476 24.3966L33.7832 28.5206C33.3565 28.8242 33.039 29.2572 32.8779 29.7555C32.7168 30.2537 32.7206 30.7907 32.8888 31.2866L35.0419 37.9116C35.1022 38.0774 35.1056 38.2584 35.0516 38.4264C34.9976 38.5943 34.8894 38.7395 34.7438 38.8391C34.6001 38.9381 34.4297 38.9911 34.2552 38.9911C34.0807 38.9911 33.9103 38.9381 33.7666 38.8391L28.1023 34.7813C27.6783 34.4742 27.1682 34.3088 26.6448 34.3088C26.1213 34.3088 25.6112 34.4742 25.1873 34.7813L19.5229 38.8888C19.3792 38.9878 19.2088 39.0408 19.0343 39.0408C18.8598 39.0408 18.6894 38.9878 18.5457 38.8888C18.4002 38.7891 18.2919 38.6439 18.2379 38.476C18.1839 38.3081 18.1873 38.127 18.2476 37.9613L20.4007 31.3363C20.5701 30.8379 20.5746 30.2983 20.4136 29.7971C20.2525 29.296 19.9344 28.8601 19.5063 28.5538L13.8419 24.3966C13.6964 24.297 13.5881 24.1518 13.5342 23.9839C13.4802 23.8159 13.4836 23.6349 13.5438 23.4691C13.5944 23.3032 13.6978 23.1583 13.8383 23.0566C13.9789 22.955 14.1488 22.902 14.3223 22.906H21.3282C21.8464 22.9114 22.3533 22.7547 22.778 22.4577C23.2027 22.1607 23.5239 21.7383 23.6966 21.2497L25.8498 14.6247C25.8498 14.4051 25.937 14.1944 26.0923 14.0391C26.2476 13.8838 26.4583 13.7966 26.6779 13.7966C26.8975 13.7966 27.1082 13.8838 27.2635 14.0391C27.4188 14.1944 27.506 14.4051 27.506 14.6247L29.6591 21.2497C29.8318 21.7383 30.153 22.1607 30.5777 22.4577C31.0024 22.7547 31.5094 22.9114 32.0276 22.906H39.0335C39.2069 22.902 39.3769 22.955 39.5174 23.0566C39.658 23.1583 39.7614 23.3032 39.8119 23.4691C39.866 23.6421 39.8594 23.8283 39.7931 23.997C39.7268 24.1657 39.6049 24.3067 39.4476 24.3966Z" fill="white"/>
<path d="M26.6445 4.14062C22.2223 4.14063 17.8993 5.45198 14.2223 7.90886C10.5454 10.3657 7.6795 13.8578 5.98717 17.9434C4.29484 22.0291 3.85205 26.5248 4.7148 30.8621C5.57754 35.1994 7.70706 39.1835 10.8341 42.3105C13.9611 45.4375 17.9451 47.567 22.2824 48.4297C26.6197 49.2925 31.1155 48.8497 35.2011 47.1574C39.2867 45.465 42.7788 42.5992 45.2357 38.9222C47.6926 35.2452 49.0039 30.9223 49.0039 26.5C48.9952 20.5726 46.6366 14.8905 42.4453 10.6992C38.254 6.50791 32.5719 4.14939 26.6445 4.14062ZM26.6445 47.2031C22.5499 47.2031 18.5471 45.9889 15.1425 43.714C11.7379 41.4391 9.08432 38.2057 7.51735 34.4227C5.95038 30.6397 5.54039 26.477 6.33922 22.461C7.13806 18.445 9.10984 14.7561 12.0052 11.8607C14.9006 8.9653 18.5895 6.99351 22.6056 6.19468C26.6216 5.39585 30.7843 5.80584 34.5673 7.37281C38.3503 8.93978 41.5837 11.5933 43.8586 14.998C46.1334 18.4026 47.3477 22.4053 47.3477 26.5C47.3389 31.9881 45.1549 37.249 41.2742 41.1296C37.3935 45.0103 32.1327 47.1944 26.6445 47.2031Z" fill="white"/>
</svg>
