<svg xmlns="http://www.w3.org/2000/svg" xmlns:xlink="http://www.w3.org/1999/xlink" width="500" zoomAndPan="magnify" viewBox="0 0 375 374.999991" height="500" preserveAspectRatio="xMidYMid meet" version="1.0"><defs><g/><clipPath id="e2f3fa93aa"><path d="M 106 140 L 251 140 L 251 236.203125 L 106 236.203125 Z M 106 140 " clip-rule="nonzero"/></clipPath><clipPath id="180dec69f5"><path d="M 258 154 L 288.53125 154 L 288.53125 220 L 258 220 Z M 258 154 " clip-rule="nonzero"/></clipPath><clipPath id="b53fc7c7ea"><path d="M 106 140 L 251 140 L 251 236.203125 L 106 236.203125 Z M 106 140 " clip-rule="nonzero"/></clipPath><clipPath id="05f3b3403d"><path d="M 258 154 L 288.53125 154 L 288.53125 220 L 258 220 Z M 258 154 " clip-rule="nonzero"/></clipPath></defs><path fill="#fcc509" d="M 155.160156 130.101562 C 164.292969 126.527344 171.878906 119.761719 177.433594 111.792969 C 187 123.898438 201.390625 132.167969 216.855469 133.503906 C 234.734375 135.359375 253.21875 127.992188 264.851562 114.375 C 274.070312 103.949219 279.070312 89.992188 278.636719 76.074219 C 278.378906 61.597656 272.089844 47.339844 261.664062 37.34375 C 249.640625 25.410156 232.109375 19.550781 215.347656 21.703125 C 196.996094 23.730469 180.449219 35.621094 171.964844 51.949219 C 161.753906 41.480469 146.933594 35.664062 132.285156 37.128906 C 117.203125 38.378906 102.988281 47.210938 95.1875 60.175781 C 88.167969 71.464844 86.269531 85.683594 89.847656 98.476562 C 93.207031 110.5 101.4375 121.054688 112.292969 127.257812 C 125.089844 134.753906 141.460938 135.832031 155.160156 130.101562 Z M 218.277344 58.839844 C 229.046875 56.214844 240.722656 64.832031 241.328125 75.902344 C 242.578125 86.414062 233.484375 96.496094 222.929688 96.625 C 213.367188 97.144531 204.277344 89.429688 203.242188 79.910156 C 201.820312 70.34375 208.886719 60.738281 218.277344 58.839844 Z M 132.757812 69.355469 C 141.933594 66.769531 152.1875 73.921875 153.050781 83.398438 C 154.34375 92.230469 147.277344 100.933594 138.445312 101.710938 C 129.742188 102.871094 121.082031 95.9375 120.21875 87.234375 C 119.144531 79.261719 124.875 71.035156 132.757812 69.355469 Z M 132.757812 69.355469 " fill-opacity="1" fill-rule="nonzero"/><g clip-path="url(#e2f3fa93aa)"><path fill="#fcc509" d="M 178.425781 168.789062 C 175.367188 159.484375 173.210938 149.875 169.808594 140.699219 C 148.742188 140.527344 127.671875 140.527344 106.605469 140.742188 C 106.734375 172.710938 106.648438 204.679688 106.648438 236.691406 C 119.316406 236.558594 131.980469 236.648438 144.648438 236.648438 C 144.648438 220.878906 144.691406 205.109375 144.691406 189.382812 C 151.195312 205.152344 157.402344 221.007812 163.992188 236.734375 C 173.6875 236.601562 183.335938 236.691406 193.03125 236.691406 C 199.449219 221.050781 205.613281 205.28125 212.160156 189.730469 C 212.289062 205.367188 212.246094 221.050781 212.246094 236.691406 C 224.914062 236.691406 237.578125 236.648438 250.246094 236.691406 C 250.246094 204.679688 250.246094 172.667969 250.246094 140.65625 C 229.089844 140.613281 207.9375 140.65625 186.785156 140.613281 C 183.984375 150.007812 181.183594 159.355469 178.425781 168.789062 Z M 178.425781 168.789062 " fill-opacity="1" fill-rule="nonzero"/></g><g clip-path="url(#180dec69f5)"><path fill="#fcc509" d="M 258.90625 169.867188 C 258.472656 181.242188 258.820312 192.617188 258.734375 203.945312 C 268.726562 208.988281 278.679688 214.070312 288.675781 219.070312 C 288.71875 197.65625 288.632812 176.242188 288.71875 154.832031 C 278.765625 159.871094 268.902344 165 258.90625 169.867188 Z M 258.90625 169.867188 " fill-opacity="1" fill-rule="nonzero"/></g><g clip-path="url(#b53fc7c7ea)"><path fill="#000000" d="M 178.425781 168.789062 C 175.367188 159.484375 173.210938 149.875 169.808594 140.699219 C 148.742188 140.527344 127.671875 140.527344 106.605469 140.742188 C 106.734375 172.710938 106.648438 204.679688 106.648438 236.691406 C 119.316406 236.558594 131.980469 236.648438 144.648438 236.648438 C 144.648438 220.878906 144.691406 205.109375 144.691406 189.382812 C 151.195312 205.152344 157.402344 221.007812 163.992188 236.734375 C 173.6875 236.601562 183.335938 236.691406 193.03125 236.691406 C 199.449219 221.050781 205.613281 205.28125 212.160156 189.730469 C 212.289062 205.367188 212.246094 221.050781 212.246094 236.691406 C 224.914062 236.691406 237.578125 236.648438 250.246094 236.691406 C 250.246094 204.679688 250.246094 172.667969 250.246094 140.65625 C 229.089844 140.613281 207.9375 140.65625 186.785156 140.613281 C 183.984375 150.007812 181.183594 159.355469 178.425781 168.789062 Z M 178.425781 168.789062 " fill-opacity="1" fill-rule="nonzero"/></g><g clip-path="url(#05f3b3403d)"><path fill="#000000" d="M 258.90625 169.867188 C 258.472656 181.242188 258.820312 192.617188 258.734375 203.945312 C 268.726562 208.988281 278.679688 214.070312 288.675781 219.070312 C 288.71875 197.65625 288.632812 176.242188 288.71875 154.832031 C 278.765625 159.871094 268.902344 165 258.90625 169.867188 Z M 258.90625 169.867188 " fill-opacity="1" fill-rule="nonzero"/></g><g fill="#000000" fill-opacity="1"><g transform="translate(10.796634, 307.086447)"><g><path d="M 39.53125 1.140625 C 32.78125 1.140625 26.675781 -0.320312 21.21875 -3.25 C 15.769531 -6.1875 11.484375 -10.253906 8.359375 -15.453125 C 5.242188 -20.660156 3.6875 -26.539062 3.6875 -33.09375 C 3.6875 -39.65625 5.242188 -45.535156 8.359375 -50.734375 C 11.484375 -55.929688 15.769531 -59.992188 21.21875 -62.921875 C 26.675781 -65.859375 32.8125 -67.328125 39.625 -67.328125 C 45.363281 -67.328125 50.546875 -66.316406 55.171875 -64.296875 C 59.804688 -62.285156 63.703125 -59.390625 66.859375 -55.609375 L 57.015625 -46.53125 C 52.546875 -51.695312 47 -54.28125 40.375 -54.28125 C 36.28125 -54.28125 32.625 -53.378906 29.40625 -51.578125 C 26.195312 -49.785156 23.691406 -47.28125 21.890625 -44.0625 C 20.097656 -40.851562 19.203125 -37.195312 19.203125 -33.09375 C 19.203125 -29 20.097656 -25.34375 21.890625 -22.125 C 23.691406 -18.914062 26.195312 -16.410156 29.40625 -14.609375 C 32.625 -12.816406 36.28125 -11.921875 40.375 -11.921875 C 47 -11.921875 52.546875 -14.535156 57.015625 -19.765625 L 66.859375 -10.6875 C 63.703125 -6.84375 59.789062 -3.910156 55.125 -1.890625 C 50.457031 0.128906 45.257812 1.140625 39.53125 1.140625 Z M 39.53125 1.140625 "/></g></g></g><g fill="#000000" fill-opacity="1"><g transform="translate(73.962042, 307.086447)"><g><path d="M 6.8125 -50.875 L 21.5625 -50.875 L 21.5625 0 L 6.8125 0 Z M 14.171875 -57.96875 C 11.460938 -57.96875 9.253906 -58.753906 7.546875 -60.328125 C 5.847656 -61.898438 5 -63.851562 5 -66.1875 C 5 -68.519531 5.847656 -70.472656 7.546875 -72.046875 C 9.253906 -73.628906 11.460938 -74.421875 14.171875 -74.421875 C 16.890625 -74.421875 19.097656 -73.660156 20.796875 -72.140625 C 22.492188 -70.628906 23.34375 -68.742188 23.34375 -66.484375 C 23.34375 -64.023438 22.492188 -61.988281 20.796875 -60.375 C 19.097656 -58.769531 16.890625 -57.96875 14.171875 -57.96875 Z M 14.171875 -57.96875 "/></g></g></g><g fill="#000000" fill-opacity="1"><g transform="translate(96.277052, 307.086447)"><g><path d="M 37.734375 -51.625 C 44.035156 -51.625 49.125 -49.734375 53 -45.953125 C 56.875 -42.171875 58.8125 -36.5625 58.8125 -29.125 L 58.8125 0 L 44.0625 0 L 44.0625 -26.859375 C 44.0625 -30.890625 43.175781 -33.894531 41.40625 -35.875 C 39.644531 -37.863281 37.097656 -38.859375 33.765625 -38.859375 C 30.035156 -38.859375 27.066406 -37.707031 24.859375 -35.40625 C 22.660156 -33.113281 21.5625 -29.695312 21.5625 -25.15625 L 21.5625 0 L 6.8125 0 L 6.8125 -50.875 L 20.890625 -50.875 L 20.890625 -44.921875 C 22.847656 -47.054688 25.273438 -48.707031 28.171875 -49.875 C 31.078125 -51.039062 34.265625 -51.625 37.734375 -51.625 Z M 37.734375 -51.625 "/></g></g></g><g fill="#000000" fill-opacity="1"><g transform="translate(155.470893, 307.086447)"><g><path d="M 56.640625 -25.25 C 56.640625 -25.0625 56.546875 -23.738281 56.359375 -21.28125 L 17.875 -21.28125 C 18.5625 -18.125 20.195312 -15.628906 22.78125 -13.796875 C 25.375 -11.972656 28.59375 -11.0625 32.4375 -11.0625 C 35.082031 -11.0625 37.425781 -11.453125 39.46875 -12.234375 C 41.519531 -13.023438 43.429688 -14.273438 45.203125 -15.984375 L 53.046875 -7.46875 C 48.253906 -1.988281 41.257812 0.75 32.0625 0.75 C 26.320312 0.75 21.242188 -0.363281 16.828125 -2.59375 C 12.421875 -4.832031 9.019531 -7.9375 6.625 -11.90625 C 4.226562 -15.882812 3.03125 -20.394531 3.03125 -25.4375 C 3.03125 -30.414062 4.210938 -34.90625 6.578125 -38.90625 C 8.941406 -42.914062 12.1875 -46.035156 16.3125 -48.265625 C 20.4375 -50.503906 25.054688 -51.625 30.171875 -51.625 C 35.148438 -51.625 39.65625 -50.550781 43.6875 -48.40625 C 47.71875 -46.269531 50.882812 -43.195312 53.1875 -39.1875 C 55.488281 -35.1875 56.640625 -30.539062 56.640625 -25.25 Z M 30.265625 -40.46875 C 26.921875 -40.46875 24.113281 -39.519531 21.84375 -37.625 C 19.570312 -35.738281 18.1875 -33.15625 17.6875 -29.875 L 42.75 -29.875 C 42.238281 -33.09375 40.847656 -35.660156 38.578125 -37.578125 C 36.304688 -39.503906 33.535156 -40.46875 30.265625 -40.46875 Z M 34.046875 -71.015625 L 49.921875 -71.015625 L 32.8125 -57.40625 L 21.28125 -57.40625 Z M 34.046875 -71.015625 "/></g></g></g><g fill="#000000" fill-opacity="1"><g transform="translate(208.991055, 307.086447)"><g><path d="M 23.171875 -53.90625 L 23.171875 -36.40625 L 53.8125 -36.40625 L 53.8125 -24.109375 L 23.171875 -24.109375 L 23.171875 0 L 7.84375 0 L 7.84375 -66.1875 L 57.875 -66.1875 L 57.875 -53.90625 Z M 23.171875 -53.90625 "/></g></g></g><g fill="#000000" fill-opacity="1"><g transform="translate(263.26772, 307.086447)"><g><path d="M 6.8125 -70.171875 L 21.5625 -70.171875 L 21.5625 0 L 6.8125 0 Z M 6.8125 -70.171875 "/></g></g></g><g fill="#000000" fill-opacity="1"><g transform="translate(285.582725, 307.086447)"><g><path d="M 6.8125 -50.875 L 21.5625 -50.875 L 21.5625 0 L 6.8125 0 Z M 14.171875 -57.96875 C 11.460938 -57.96875 9.253906 -58.753906 7.546875 -60.328125 C 5.847656 -61.898438 5 -63.851562 5 -66.1875 C 5 -68.519531 5.847656 -70.472656 7.546875 -72.046875 C 9.253906 -73.628906 11.460938 -74.421875 14.171875 -74.421875 C 16.890625 -74.421875 19.097656 -73.660156 20.796875 -72.140625 C 22.492188 -70.628906 23.34375 -68.742188 23.34375 -66.484375 C 23.34375 -64.023438 22.492188 -61.988281 20.796875 -60.375 C 19.097656 -58.769531 16.890625 -57.96875 14.171875 -57.96875 Z M 14.171875 -57.96875 "/></g></g></g><g fill="#000000" fill-opacity="1"><g transform="translate(307.89773, 307.086447)"><g><path d="M 39.15625 0 L 27.984375 -15.609375 L 16.453125 0 L 0.375 0 L 19.953125 -25.625 L 1.046875 -50.875 L 17.59375 -50.875 L 28.375 -36.03125 L 39.4375 -50.875 L 55.125 -50.875 L 36.21875 -26 L 55.890625 0 Z M 39.15625 0 "/></g></g></g></svg>