<svg xmlns="http://www.w3.org/2000/svg" xmlns:xlink="http://www.w3.org/1999/xlink" width="500" zoomAndPan="magnify" viewBox="0 0 375 374.999991" height="500" preserveAspectRatio="xMidYMid meet" version="1.0"><defs><g/><clipPath id="5d8e570d0f"><path d="M 106 152 L 251 152 L 251 248.148438 L 106 248.148438 Z M 106 152 " clip-rule="nonzero"/></clipPath><clipPath id="a523578a9d"><path d="M 258 166 L 288.53125 166 L 288.53125 232 L 258 232 Z M 258 166 " clip-rule="nonzero"/></clipPath><clipPath id="8ee3d1fd75"><path d="M 106 152 L 251 152 L 251 248.148438 L 106 248.148438 Z M 106 152 " clip-rule="nonzero"/></clipPath><clipPath id="c37f56a2a2"><path d="M 258 166 L 288.53125 166 L 288.53125 232 L 258 232 Z M 258 166 " clip-rule="nonzero"/></clipPath></defs><path fill="#fcc509" d="M 155.160156 142.046875 C 164.292969 138.46875 171.878906 131.707031 177.433594 123.734375 C 187 135.839844 201.390625 144.113281 216.855469 145.449219 C 234.734375 147.300781 253.21875 139.933594 264.851562 126.320312 C 274.070312 115.894531 279.070312 101.933594 278.636719 88.019531 C 278.378906 73.542969 272.089844 59.28125 261.664062 49.289062 C 249.640625 37.351562 232.109375 31.492188 215.347656 33.648438 C 196.996094 35.671875 180.449219 47.5625 171.964844 63.894531 C 161.753906 53.421875 146.933594 47.605469 132.285156 49.070312 C 117.203125 50.320312 102.988281 59.152344 95.1875 72.121094 C 88.167969 83.410156 86.269531 97.625 89.847656 110.421875 C 93.207031 122.441406 101.4375 133 112.292969 139.203125 C 125.089844 146.699219 141.460938 147.777344 155.160156 142.046875 Z M 218.277344 70.785156 C 229.046875 68.15625 240.722656 76.773438 241.328125 87.847656 C 242.578125 98.359375 233.484375 108.441406 222.929688 108.570312 C 213.367188 109.085938 204.277344 101.375 203.242188 91.855469 C 201.820312 82.289062 208.886719 72.679688 218.277344 70.785156 Z M 132.757812 81.296875 C 141.933594 78.714844 152.1875 85.863281 153.050781 95.34375 C 154.34375 104.175781 147.277344 112.878906 138.445312 113.652344 C 129.742188 114.816406 121.082031 107.878906 120.21875 99.179688 C 119.144531 91.207031 124.875 82.980469 132.757812 81.296875 Z M 132.757812 81.296875 " fill-opacity="1" fill-rule="nonzero"/><g clip-path="url(#5d8e570d0f)"><path fill="#fcc509" d="M 178.425781 180.734375 C 175.367188 171.429688 173.210938 161.820312 169.808594 152.644531 C 148.742188 152.472656 127.671875 152.472656 106.605469 152.6875 C 106.734375 184.65625 106.648438 216.621094 106.648438 248.632812 C 119.316406 248.503906 131.980469 248.589844 144.648438 248.589844 C 144.648438 232.824219 144.691406 217.054688 144.691406 201.328125 C 151.195312 217.097656 157.402344 232.953125 163.992188 248.675781 C 173.6875 248.546875 183.335938 248.632812 193.03125 248.632812 C 199.449219 232.996094 205.613281 217.226562 212.160156 201.671875 C 212.289062 217.3125 212.246094 232.996094 212.246094 248.632812 C 224.914062 248.632812 237.578125 248.589844 250.246094 248.632812 C 250.246094 216.621094 250.246094 184.613281 250.246094 152.601562 C 229.089844 152.558594 207.9375 152.601562 186.785156 152.558594 C 183.984375 161.949219 181.183594 171.300781 178.425781 180.734375 Z M 178.425781 180.734375 " fill-opacity="1" fill-rule="nonzero"/></g><g clip-path="url(#a523578a9d)"><path fill="#fcc509" d="M 258.90625 181.8125 C 258.472656 193.1875 258.820312 204.558594 258.734375 215.890625 C 268.726562 220.929688 278.679688 226.015625 288.675781 231.011719 C 288.71875 209.601562 288.632812 188.1875 288.71875 166.777344 C 278.765625 171.816406 268.902344 176.941406 258.90625 181.8125 Z M 258.90625 181.8125 " fill-opacity="1" fill-rule="nonzero"/></g><g clip-path="url(#8ee3d1fd75)"><path fill="#ffffff" d="M 178.425781 180.734375 C 175.367188 171.429688 173.210938 161.820312 169.808594 152.644531 C 148.742188 152.472656 127.671875 152.472656 106.605469 152.6875 C 106.734375 184.65625 106.648438 216.621094 106.648438 248.632812 C 119.316406 248.503906 131.980469 248.589844 144.648438 248.589844 C 144.648438 232.824219 144.691406 217.054688 144.691406 201.328125 C 151.195312 217.097656 157.402344 232.953125 163.992188 248.675781 C 173.6875 248.546875 183.335938 248.632812 193.03125 248.632812 C 199.449219 232.996094 205.613281 217.226562 212.160156 201.671875 C 212.289062 217.3125 212.246094 232.996094 212.246094 248.632812 C 224.914062 248.632812 237.578125 248.589844 250.246094 248.632812 C 250.246094 216.621094 250.246094 184.613281 250.246094 152.601562 C 229.089844 152.558594 207.9375 152.601562 186.785156 152.558594 C 183.984375 161.949219 181.183594 171.300781 178.425781 180.734375 Z M 178.425781 180.734375 " fill-opacity="1" fill-rule="nonzero"/></g><g clip-path="url(#c37f56a2a2)"><path fill="#ffffff" d="M 258.90625 181.8125 C 258.472656 193.1875 258.820312 204.558594 258.734375 215.890625 C 268.726562 220.929688 278.679688 226.015625 288.675781 231.011719 C 288.71875 209.601562 288.632812 188.1875 288.71875 166.777344 C 278.765625 171.816406 268.902344 176.941406 258.90625 181.8125 Z M 258.90625 181.8125 " fill-opacity="1" fill-rule="nonzero"/></g><g fill="#ffffff" fill-opacity="1"><g transform="translate(10.762768, 320.895389)"><g><path d="M 39.53125 1.140625 C 32.78125 1.140625 26.675781 -0.320312 21.21875 -3.25 C 15.769531 -6.1875 11.484375 -10.253906 8.359375 -15.453125 C 5.242188 -20.660156 3.6875 -26.546875 3.6875 -33.109375 C 3.6875 -39.660156 5.242188 -45.535156 8.359375 -50.734375 C 11.484375 -55.941406 15.769531 -60.007812 21.21875 -62.9375 C 26.675781 -65.875 32.8125 -67.34375 39.625 -67.34375 C 45.363281 -67.34375 50.550781 -66.332031 55.1875 -64.3125 C 59.820312 -62.289062 63.710938 -59.390625 66.859375 -55.609375 L 57.03125 -46.53125 C 52.550781 -51.695312 47.003906 -54.28125 40.390625 -54.28125 C 36.285156 -54.28125 32.625 -53.378906 29.40625 -51.578125 C 26.195312 -49.785156 23.691406 -47.28125 21.890625 -44.0625 C 20.097656 -40.851562 19.203125 -37.203125 19.203125 -33.109375 C 19.203125 -29.003906 20.097656 -25.34375 21.890625 -22.125 C 23.691406 -18.914062 26.195312 -16.410156 29.40625 -14.609375 C 32.625 -12.816406 36.285156 -11.921875 40.390625 -11.921875 C 47.003906 -11.921875 52.550781 -14.535156 57.03125 -19.765625 L 66.859375 -10.6875 C 63.710938 -6.84375 59.804688 -3.910156 55.140625 -1.890625 C 50.472656 0.128906 45.269531 1.140625 39.53125 1.140625 Z M 39.53125 1.140625 "/></g></g></g><g fill="#ffffff" fill-opacity="1"><g transform="translate(73.943471, 320.895389)"><g><path d="M 6.8125 -50.890625 L 21.5625 -50.890625 L 21.5625 0 L 6.8125 0 Z M 14.1875 -57.96875 C 11.476562 -57.96875 9.269531 -58.753906 7.5625 -60.328125 C 5.863281 -61.910156 5.015625 -63.867188 5.015625 -66.203125 C 5.015625 -68.535156 5.863281 -70.488281 7.5625 -72.0625 C 9.269531 -73.644531 11.476562 -74.4375 14.1875 -74.4375 C 16.894531 -74.4375 19.097656 -73.675781 20.796875 -72.15625 C 22.503906 -70.644531 23.359375 -68.753906 23.359375 -66.484375 C 23.359375 -64.023438 22.503906 -61.988281 20.796875 -60.375 C 19.097656 -58.769531 16.894531 -57.96875 14.1875 -57.96875 Z M 14.1875 -57.96875 "/></g></g></g><g fill="#ffffff" fill-opacity="1"><g transform="translate(96.264753, 320.895389)"><g><path d="M 37.734375 -51.640625 C 44.035156 -51.640625 49.125 -49.75 53 -45.96875 C 56.882812 -42.1875 58.828125 -36.570312 58.828125 -29.125 L 58.828125 0 L 44.078125 0 L 44.078125 -26.859375 C 44.078125 -30.890625 43.191406 -33.898438 41.421875 -35.890625 C 39.660156 -37.878906 37.109375 -38.875 33.765625 -38.875 C 30.046875 -38.875 27.082031 -37.722656 24.875 -35.421875 C 22.664062 -33.117188 21.5625 -29.695312 21.5625 -25.15625 L 21.5625 0 L 6.8125 0 L 6.8125 -50.890625 L 20.90625 -50.890625 L 20.90625 -44.921875 C 22.851562 -47.066406 25.273438 -48.722656 28.171875 -49.890625 C 31.078125 -51.054688 34.265625 -51.640625 37.734375 -51.640625 Z M 37.734375 -51.640625 "/></g></g></g><g fill="#ffffff" fill-opacity="1"><g transform="translate(155.473024, 320.895389)"><g><path d="M 56.65625 -25.25 C 56.65625 -25.0625 56.5625 -23.738281 56.375 -21.28125 L 17.875 -21.28125 C 18.570312 -18.125 20.210938 -15.628906 22.796875 -13.796875 C 25.378906 -11.972656 28.59375 -11.0625 32.4375 -11.0625 C 35.082031 -11.0625 37.429688 -11.457031 39.484375 -12.25 C 41.535156 -13.039062 43.441406 -14.285156 45.203125 -15.984375 L 53.0625 -7.46875 C 48.269531 -1.988281 41.269531 0.75 32.0625 0.75 C 26.320312 0.75 21.242188 -0.363281 16.828125 -2.59375 C 12.421875 -4.832031 9.019531 -7.9375 6.625 -11.90625 C 4.226562 -15.882812 3.03125 -20.394531 3.03125 -25.4375 C 3.03125 -30.414062 4.210938 -34.90625 6.578125 -38.90625 C 8.941406 -42.914062 12.1875 -46.039062 16.3125 -48.28125 C 20.445312 -50.519531 25.066406 -51.640625 30.171875 -51.640625 C 35.148438 -51.640625 39.65625 -50.566406 43.6875 -48.421875 C 47.726562 -46.273438 50.898438 -43.203125 53.203125 -39.203125 C 55.503906 -35.203125 56.65625 -30.550781 56.65625 -25.25 Z M 30.265625 -40.484375 C 26.921875 -40.484375 24.113281 -39.535156 21.84375 -37.640625 C 19.570312 -35.753906 18.1875 -33.171875 17.6875 -29.890625 L 42.75 -29.890625 C 42.25 -33.097656 40.863281 -35.664062 38.59375 -37.59375 C 36.320312 -39.519531 33.546875 -40.484375 30.265625 -40.484375 Z M 34.046875 -71.03125 L 49.9375 -71.03125 L 32.828125 -57.40625 L 21.28125 -57.40625 Z M 34.046875 -71.03125 "/></g></g></g><g fill="#ffffff" fill-opacity="1"><g transform="translate(209.006376, 320.895389)"><g><path d="M 23.171875 -53.90625 L 23.171875 -36.40625 L 53.8125 -36.40625 L 53.8125 -24.125 L 23.171875 -24.125 L 23.171875 0 L 7.84375 0 L 7.84375 -66.203125 L 57.875 -66.203125 L 57.875 -53.90625 Z M 23.171875 -53.90625 "/></g></g></g><g fill="#ffffff" fill-opacity="1"><g transform="translate(263.296366, 320.895389)"><g><path d="M 6.8125 -70.171875 L 21.5625 -70.171875 L 21.5625 0 L 6.8125 0 Z M 6.8125 -70.171875 "/></g></g></g><g fill="#ffffff" fill-opacity="1"><g transform="translate(285.617654, 320.895389)"><g><path d="M 6.8125 -50.890625 L 21.5625 -50.890625 L 21.5625 0 L 6.8125 0 Z M 14.1875 -57.96875 C 11.476562 -57.96875 9.269531 -58.753906 7.5625 -60.328125 C 5.863281 -61.910156 5.015625 -63.867188 5.015625 -66.203125 C 5.015625 -68.535156 5.863281 -70.488281 7.5625 -72.0625 C 9.269531 -73.644531 11.476562 -74.4375 14.1875 -74.4375 C 16.894531 -74.4375 19.097656 -73.675781 20.796875 -72.15625 C 22.503906 -70.644531 23.359375 -68.753906 23.359375 -66.484375 C 23.359375 -64.023438 22.503906 -61.988281 20.796875 -60.375 C 19.097656 -58.769531 16.894531 -57.96875 14.1875 -57.96875 Z M 14.1875 -57.96875 "/></g></g></g><g fill="#ffffff" fill-opacity="1"><g transform="translate(307.938942, 320.895389)"><g><path d="M 39.15625 0 L 28 -15.609375 L 16.453125 0 L 0.375 0 L 19.953125 -25.625 L 1.046875 -50.890625 L 17.59375 -50.890625 L 28.375 -36.03125 L 39.4375 -50.890625 L 55.140625 -50.890625 L 36.21875 -26.015625 L 55.890625 0 Z M 39.15625 0 "/></g></g></g></svg>