<svg width="477" height="427" viewBox="0 0 477 427" fill="none" xmlns="http://www.w3.org/2000/svg">
<path d="M232.428 180.639L85.6315 77.1181C81.4134 73.9434 76.2532 71.9379 70.782 71.347C65.3107 70.7562 59.7658 71.6054 54.8252 73.791C47.7928 77.4238 42.0212 82.7286 38.1501 89.1176C34.279 95.5066 32.4595 102.73 32.8932 109.988V317.012C32.4583 324.27 34.2774 331.494 38.1486 337.883C42.0198 344.272 47.792 349.577 54.8252 353.209C58.7155 354.937 62.9939 355.85 67.3366 355.878C74.0282 355.802 80.4928 353.695 85.6712 349.9L232.428 246.415C237.668 242.343 241.825 237.274 244.595 231.58C247.365 225.885 248.678 219.708 248.438 213.5C248.672 207.301 247.356 201.133 244.587 195.448C241.817 189.762 237.663 184.703 232.428 180.639Z" fill="black"/>
<path d="M428.127 180.63L281.351 77.1182C277.131 73.9455 271.971 71.9414 266.501 71.3506C261.03 70.7598 255.485 71.6078 250.544 73.7912C243.5 77.415 237.715 82.7167 233.835 89.1068C229.954 95.497 228.129 102.725 228.563 109.988V317.012C228.13 324.272 229.951 331.497 233.824 337.888C237.697 344.278 243.47 349.584 250.505 353.218C254.399 354.943 258.68 355.856 263.026 355.887C269.713 355.807 276.173 353.699 281.351 349.909L428.117 246.361C433.358 242.301 437.518 237.243 440.292 231.557C443.065 225.871 444.382 219.701 444.147 213.5C444.382 207.299 443.066 201.129 440.294 195.442C437.523 189.754 433.366 184.694 428.127 180.63Z" fill="black"/>
</svg>
